<svg width="22" height="22" viewBox="0 0 22 22" fill="none" xmlns="http://www.w3.org/2000/svg">
<path d="M9.25 18.25C11.3267 18.25 13.2359 17.5356 14.7591 16.351L19.7046 21.2965L21.2954 19.7058L16.3499 14.7603C17.5356 13.2359 18.25 11.3267 18.25 9.25C18.25 4.28763 14.2124 0.25 9.25 0.25C4.28763 0.25 0.25 4.28763 0.25 9.25C0.25 14.2124 4.28763 18.25 9.25 18.25ZM9.25 2.5C12.9726 2.5 16 5.52738 16 9.25C16 12.9726 12.9726 16 9.25 16C5.52738 16 2.5 12.9726 2.5 9.25C2.5 5.52738 5.52738 2.5 9.25 2.5Z" fill="black"/>
</svg>
